<svg width="489" height="265" viewBox="0 0 489 265" fill="none" xmlns="http://www.w3.org/2000/svg">
<rect width="489" height="265" fill="#F3070A"/>
<g opacity="0.9">
<path d="M51.8086 192L74.1719 49.0312H98.7812C117.141 49.0312 130.227 49.5521 138.039 50.5938C145.917 51.5703 152.297 53.2956 157.18 55.7695C167.792 61.1081 175.865 68.9531 181.398 79.3047C186.997 89.5911 189.797 101.831 189.797 116.023C189.797 129.76 187.29 141.772 182.277 152.059C177.329 162.345 169.777 171.069 159.621 178.23C152.46 183.178 143.964 186.727 134.133 188.875C124.302 190.958 107.863 192 84.8164 192H79.4453H51.8086ZM95.168 160.164C97.8372 160.359 99.7904 160.49 101.027 160.555C102.329 160.555 103.534 160.555 104.641 160.555C119.94 160.555 131.561 156.714 139.504 149.031C147.447 141.349 151.418 130.086 151.418 115.242C151.418 103.133 148.521 94.3438 142.727 88.875C136.932 83.3411 127.557 80.5742 114.602 80.5742H107.375L95.168 160.164ZM189.953 192L205.578 93.3672H238.977L236.535 110.164C239.595 103.914 243.697 99.1615 248.84 95.9062C253.983 92.651 259.973 91.0234 266.809 91.0234C267.525 91.0234 268.339 91.0885 269.25 91.2188C270.161 91.2839 271.594 91.4792 273.547 91.8047L266.613 122.762C264.335 122.241 262.284 121.85 260.461 121.59C258.638 121.329 256.88 121.199 255.188 121.199C248.482 121.199 243.176 123.315 239.27 127.547C235.428 131.714 232.792 138.191 231.359 146.98L224.328 192H189.953ZM283.176 63.9727C283.176 58.8945 284.966 54.5326 288.547 50.8867C292.193 47.2409 296.587 45.418 301.73 45.418C307.134 45.418 311.626 47.1758 315.207 50.6914C318.788 54.207 320.578 58.6341 320.578 63.9727C320.578 69.2461 318.755 73.7057 315.109 77.3516C311.464 80.9974 307.004 82.8203 301.73 82.8203C296.587 82.8203 292.193 80.9974 288.547 77.3516C284.966 73.6406 283.176 69.181 283.176 63.9727ZM265.012 192L280.539 93.3672H315.598L299.973 192H265.012ZM393.496 140.438C393.496 134.122 391.543 129.044 387.637 125.203C383.796 121.362 378.75 119.441 372.5 119.441C365.534 119.441 359.74 122.111 355.117 127.449C350.56 132.788 348.281 139.493 348.281 147.566C348.281 153.686 350.202 158.634 354.043 162.41C357.884 166.121 362.897 167.977 369.082 167.977C376.178 167.977 382.005 165.405 386.562 160.262C391.185 155.053 393.496 148.445 393.496 140.438ZM302.676 235.555L325.234 93.3672H358.047L355.898 107.039C360.781 101.44 366.12 97.2409 371.914 94.4414C377.708 91.6419 383.893 90.2422 390.469 90.2422C401.862 90.2422 411.172 94.5065 418.398 103.035C425.625 111.499 429.238 122.501 429.238 136.043C429.238 153.1 424.323 167.26 414.492 178.523C404.727 189.786 392.454 195.418 377.676 195.418C371.035 195.418 365.013 194.018 359.609 191.219C354.271 188.354 349.225 183.96 344.473 178.035C344.473 181.16 344.375 184.057 344.18 186.727C344.049 189.331 343.822 191.609 343.496 193.562L337.051 235.555H302.676Z" fill="white"/>
</g>
</svg>
